ffmpeg started on 2025-05-28 at 11:10:43
Report written to "D:\Convert\FFMetrics\reports\ssim_report-6.txt"
Log level: 32
Command line:
ffmpeg -hide_banner -nostdin -i "G:\\\xc0\xed\xe8\xec\xe5\\\xce\xed\xe3\xee\xe8\xed\xe3\xe8\\!_36_\xce\xf1\xe5\xed\xfc_2024\\JamClub\\MF \xcf\xf0\xe8\xe7\xf0\xe0\xea\\\xd2\xc2-2\\[JamClub] MF Ghost 2 - 09_HEVC.mkv" -i "G:\\\xc0\xed\xe8\xec\xe5\\\xce\xed\xe3\xee\xe8\xed\xe3\xe8\\!_36_\xce\xf1\xe5\xed\xfc_2024\\JamClub\\MF \xcf\xf0\xe8\xe7\xf0\xe0\xea\\\xd2\xc2-2\\[JamClub] MF Ghost 2 - 09.mp4" -lavfi "[0:v]settb=AVTB,setpts=PTS-STARTPTS,format=pix_fmts=yuv420p10,fps=24000/1001,scale=1920:1080:flags=bicubic[main];[1:v]settb=AVTB,setpts=PTS-STARTPTS,format=pix_fmts=yuv420p,fps=24000/1001,scale=1920:1080:flags=bicubic[ref];[main][ref]ssim=eof_action=endall:stats_file='D\\:/Convert/FFMetrics/logs/ssim_logfile-6.txt'" -f null -
Input #0, matroska,webm, from 'G:\Аниме\Онгоинги\!_36_Осень_2024\JamClub\MF Призрак\ТВ-2\[JamClub] MF Ghost 2 - 09_HEVC.mkv':
  Metadata:
    COMPATIBLE_BRANDS: isomiso2avc1mp41
    MAJOR_BRAND     : isom
    MINOR_VERSION   : 512
    ENCODER         : Lavf61.7.100
  Duration: 00:24:02.43, start: -0.001000, bitrate: 1371 kb/s
  Stream #0:0: Video: hevc (Main 10), yuv420p10le(tv, bt709, progressive), 1920x1080 [SAR 1:1 DAR 16:9], 23.98 fps, 23.98 tbr, 1k tbn (default)
      Metadata:
        HANDLER_NAME    : VideoHandler
        VENDOR_ID       : [0][0][0][0]
        ENCODER         : Lavc61.19.100 libx265
        BPS             : 1173297
        DURATION        : 00:24:02.315708333
        NUMBER_OF_FRAMES: 34581
        NUMBER_OF_BYTES : 211533123
        _STATISTICS_WRITING_APP: mkvpropedit v66.0.0 ('Josie') 64-bit
        _STATISTICS_WRITING_DATE_UTC: 2025-05-27 13:54:59
        _STATISTICS_TAGS: BPS DURATION NUMBER_OF_FRAMES NUMBER_OF_BYTES
  Stream #0:1(eng): Audio: aac (LC), 48000 Hz, stereo, fltp (default)
      Metadata:
        HANDLER_NAME    : SoundHandler
        VENDOR_ID       : [0][0][0][0]
        ENCODER         : Lavc61.19.100 aac
        BPS             : 194661
        DURATION        : 00:24:02.392000000
        NUMBER_OF_FRAMES: 67613
        NUMBER_OF_BYTES : 35097221
        _STATISTICS_WRITING_APP: mkvpropedit v66.0.0 ('Josie') 64-bit
        _STATISTICS_WRITING_DATE_UTC: 2025-05-27 13:54:59
        _STATISTICS_TAGS: BPS DURATION NUMBER_OF_FRAMES NUMBER_OF_BYTES
Input #1, mov,mp4,m4a,3gp,3g2,mj2, from 'G:\Аниме\Онгоинги\!_36_Осень_2024\JamClub\MF Призрак\ТВ-2\[JamClub] MF Ghost 2 - 09.mp4':
  Metadata:
    major_brand     : isom
    minor_version   : 512
    compatible_brands: isomiso2avc1mp41
    encoder         : Lavf60.16.100
  Duration: 00:24:02.41, start: 0.000000, bitrate: 3899 kb/s
  Stream #1:0[0x1](und): Video: h264 (High) (avc1 / 0x31637661), yuv420p(progressive), 1920x1080 [SAR 1:1 DAR 16:9], 3701 kb/s, 23.98 fps, 23.98 tbr, 90k tbn (default)
      Metadata:
        handler_name    : VideoHandler
        vendor_id       : [0][0][0][0]
  Stream #1:1[0x2](eng): Audio: aac (LC) (mp4a / 0x6134706D), 48000 Hz, stereo, fltp, 191 kb/s (default)
      Metadata:
        handler_name    : SoundHandler
        vendor_id       : [0][0][0][0]
Stream mapping:
  Stream #0:0 (hevc) -> settb:default
  Stream #1:0 (h264) -> settb:default
  ssim:default -> Stream #0:0 (wrapped_avframe)
  Stream #0:1 -> #0:1 (aac (native) -> pcm_s16le (native))
Output #0, null, to 'pipe:':
  Metadata:
    COMPATIBLE_BRANDS: isomiso2avc1mp41
    MAJOR_BRAND     : isom
    MINOR_VERSION   : 512
    encoder         : Lavf61.7.100
  Stream #0:0: Video: wrapped_avframe, yuv420p10le(tv, bt709, progressive), 1920x1080 [SAR 1:1 DAR 16:9], q=2-31, 200 kb/s, 23.98 fps, 23.98 tbn
      Metadata:
        encoder         : Lavc61.19.100 wrapped_avframe
  Stream #0:1(eng): Audio: pcm_s16le, 48000 Hz, stereo, s16, 1536 kb/s (default)
      Metadata:
        HANDLER_NAME    : SoundHandler
        VENDOR_ID       : [0][0][0][0]
        _STATISTICS_TAGS: BPS DURATION NUMBER_OF_FRAMES NUMBER_OF_BYTES
        BPS             : 194661
        DURATION        : 00:24:02.392000000
        NUMBER_OF_FRAMES: 67613
        NUMBER_OF_BYTES : 35097221
        _STATISTICS_WRITING_APP: mkvpropedit v66.0.0 ('Josie') 64-bit
        _STATISTICS_WRITING_DATE_UTC: 2025-05-27 13:54:59
        encoder         : Lavc61.19.100 pcm_s16le
frame=  114 fps=0.0 q=-0.0 size=N/A time=00:00:04.75 bitrate=N/A speed= 9.2x    frame=  282 fps=271 q=-0.0 size=N/A time=00:00:11.76 bitrate=N/A speed=11.3x    frame=  478 fps=309 q=-0.0 size=N/A time=00:00:19.93 bitrate=N/A speed=12.9x    frame=  729 fps=352 q=-0.0 size=N/A time=00:00:30.40 bitrate=N/A speed=14.7x    frame=  986 fps=383 q=-0.0 size=N/A time=00:00:41.12 bitrate=N/A speed=  16x    frame= 1260 fps=406 q=-0.0 size=N/A time=00:00:52.55 bitrate=N/A speed=  17x    frame= 1507 fps=418 q=-0.0 size=N/A time=00:01:02.85 bitrate=N/A speed=17.4x    frame= 1767 fps=428 q=-0.0 size=N/A time=00:01:13.69 bitrate=N/A speed=17.8x    frame= 2016 fps=435 q=-0.0 size=N/A time=00:01:24.08 bitrate=N/A speed=18.1x    frame= 2273 fps=441 q=-0.0 size=N/A time=00:01:34.80 bitrate=N/A speed=18.4x    frame= 2499 fps=441 q=-0.0 size=N/A time=00:01:44.22 bitrate=N/A speed=18.4x    frame= 2705 fps=437 q=-0.0 size=N/A time=00:01:52.82 bitrate=N/A speed=18.2x    frame= 2846 fps=425 q=-0.0 size=N/A time=00:01:58.70 bitrate=N/A speed=17.7x    frame= 3008 fps=416 q=-0.0 size=N/A time=00:02:05.45 bitrate=N/A speed=17.4x    frame= 3194 fps=413 q=-0.0 size=N/A time=00:02:13.21 bitrate=N/A speed=17.2x    frame= 3384 fps=410 q=-0.0 size=N/A time=00:02:21.14 bitrate=N/A speed=17.1x    frame= 3569 fps=407 q=-0.0 size=N/A time=00:02:28.85 bitrate=N/A speed=  17x    frame= 3753 fps=404 q=-0.0 size=N/A time=00:02:36.53 bitrate=N/A speed=16.9x    frame= 3956 fps=404 q=-0.0 size=N/A time=00:02:44.99 bitrate=N/A speed=16.8x    frame= 4113 fps=399 q=-0.0 size=N/A time=00:02:51.54 bitrate=N/A speed=16.6x    frame= 4261 fps=394 q=-0.0 size=N/A time=00:02:57.71 bitrate=N/A speed=16.4x    frame= 4416 fps=389 q=-0.0 size=N/A time=00:03:04.18 bitrate=N/A speed=16.2x    frame= 4578 fps=386 q=-0.0 size=N/A time=00:03:10.94 bitrate=N/A speed=16.1x    frame= 4721 fps=381 q=-0.0 size=N/A time=00:03:16.90 bitrate=N/A speed=15.9x    frame= 4877 fps=378 q=-0.0 size=N/A time=00:03:23.41 bitrate=N/A speed=15.8x    frame= 5102 fps=380 q=-0.0 size=N/A time=00:03:32.79 bitrate=N/A speed=15.9x    frame= 5356 fps=384 q=-0.0 size=N/A time=00:03:43.38 bitrate=N/A speed=  16x    frame= 5617 fps=389 q=-0.0 size=N/A time=00:03:54.27 bitrate=N/A speed=16.2x    frame= 5878 fps=393 q=-0.0 size=N/A time=00:04:05.16 bitrate=N/A speed=16.4x    frame= 6157 fps=398 q=-0.0 size=N/A time=00:04:16.79 bitrate=N/A speed=16.6x    frame= 6405 fps=401 q=-0.0 size=N/A time=00:04:27.14 bitrate=N/A speed=16.7x    frame= 6678 fps=405 q=-0.0 size=N/A time=00:04:38.52 bitrate=N/A speed=16.9x    frame= 6965 fps=409 q=-0.0 size=N/A time=00:04:50.49 bitrate=N/A speed=17.1x    frame= 7256 fps=414 q=-0.0 size=N/A time=00:05:02.63 bitrate=N/A speed=17.3x    frame= 7497 fps=415 q=-0.0 size=N/A time=00:05:12.68 bitrate=N/A speed=17.3x    frame= 7727 fps=416 q=-0.0 size=N/A time=00:05:22.28 bitrate=N/A speed=17.4x    frame= 7966 fps=418 q=-0.0 size=N/A time=00:05:32.24 bitrate=N/A speed=17.4x    frame= 8197 fps=418 q=-0.0 size=N/A time=00:05:41.88 bitrate=N/A speed=17.4x    frame= 8409 fps=418 q=-0.0 size=N/A time=00:05:50.72 bitrate=N/A speed=17.4x    frame= 8628 fps=418 q=-0.0 size=N/A time=00:05:59.85 bitrate=N/A speed=17.4x    frame= 8873 fps=419 q=-0.0 size=N/A time=00:06:10.07 bitrate=N/A speed=17.5x    frame= 9118 fps=421 q=-0.0 size=N/A time=00:06:20.29 bitrate=N/A speed=17.6x    frame= 9362 fps=422 q=-0.0 size=N/A time=00:06:30.47 bitrate=N/A speed=17.6x    frame= 9598 fps=423 q=-0.0 size=N/A time=00:06:40.31 bitrate=N/A speed=17.6x    frame= 9813 fps=423 q=-0.0 size=N/A time=00:06:49.28 bitrate=N/A speed=17.6x    frame= 9997 fps=421 q=-0.0 size=N/A time=00:06:56.95 bitrate=N/A speed=17.6x    frame=10244 fps=423 q=-0.0 size=N/A time=00:07:07.26 bitrate=N/A speed=17.6x    frame=10467 fps=423 q=-0.0 size=N/A time=00:07:16.56 bitrate=N/A speed=17.6x    frame=10705 fps=424 q=-0.0 size=N/A time=00:07:26.48 bitrate=N/A speed=17.7x    frame=10912 fps=423 q=-0.0 size=N/A time=00:07:35.12 bitrate=N/A speed=17.7x    frame=11154 fps=424 q=-0.0 size=N/A time=00:07:45.21 bitrate=N/A speed=17.7x    frame=11381 fps=424 q=-0.0 size=N/A time=00:07:54.68 bitrate=N/A speed=17.7x    frame=11637 fps=426 q=-0.0 size=N/A time=00:08:05.35 bitrate=N/A speed=17.8x    frame=11887 fps=427 q=-0.0 size=N/A time=00:08:15.78 bitrate=N/A speed=17.8x    frame=12142 fps=428 q=-0.0 size=N/A time=00:08:26.42 bitrate=N/A speed=17.9x    frame=12398 fps=429 q=-0.0 size=N/A time=00:08:37.09 bitrate=N/A speed=17.9x    frame=12635 fps=430 q=-0.0 size=N/A time=00:08:46.98 bitrate=N/A speed=17.9x    frame=12807 fps=428 q=-0.0 size=N/A time=00:08:54.15 bitrate=N/A speed=17.9x    frame=13019 fps=428 q=-0.0 size=N/A time=00:09:03.00 bitrate=N/A speed=17.8x    frame=13238 fps=428 q=-0.0 size=N/A time=00:09:12.13 bitrate=N/A speed=17.8x    frame=13461 fps=428 q=-0.0 size=N/A time=00:09:21.43 bitrate=N/A speed=17.8x    frame=13682 fps=428 q=-0.0 size=N/A time=00:09:30.65 bitrate=N/A speed=17.8x    frame=13927 fps=429 q=-0.0 size=N/A time=00:09:40.87 bitrate=N/A speed=17.9x    frame=14162 fps=429 q=-0.0 size=N/A time=00:09:50.67 bitrate=N/A speed=17.9x    frame=14408 fps=430 q=-0.0 size=N/A time=00:10:00.93 bitrate=N/A speed=17.9x    frame=14628 fps=430 q=-0.0 size=N/A time=00:10:10.10 bitrate=N/A speed=17.9x    frame=14868 fps=430 q=-0.0 size=N/A time=00:10:20.11 bitrate=N/A speed=  18x    frame=15107 fps=431 q=-0.0 size=N/A time=00:10:30.08 bitrate=N/A speed=  18x    frame=15352 fps=432 q=-0.0 size=N/A time=00:10:40.30 bitrate=N/A speed=  18x    frame=15569 fps=431 q=-0.0 size=N/A time=00:10:49.35 bitrate=N/A speed=  18x    frame=15813 fps=432 q=-0.0 size=N/A time=00:10:59.53 bitrate=N/A speed=  18x    frame=16092 fps=433 q=-0.0 size=N/A time=00:11:11.17 bitrate=N/A speed=18.1x    frame=16372 fps=435 q=-0.0 size=N/A time=00:11:22.84 bitrate=N/A speed=18.1x    frame=16623 fps=436 q=-0.0 size=N/A time=00:11:33.31 bitrate=N/A speed=18.2x    frame=16879 fps=436 q=-0.0 size=N/A time=00:11:43.99 bitrate=N/A speed=18.2x    frame=17111 fps=437 q=-0.0 size=N/A time=00:11:53.67 bitrate=N/A speed=18.2x    frame=17356 fps=437 q=-0.0 size=N/A time=00:12:03.88 bitrate=N/A speed=18.2x    frame=17631 fps=438 q=-0.0 size=N/A time=00:12:15.35 bitrate=N/A speed=18.3x    frame=17860 fps=438 q=-0.0 size=N/A time=00:12:24.91 bitrate=N/A speed=18.3x    frame=18125 fps=439 q=-0.0 size=N/A time=00:12:35.96 bitrate=N/A speed=18.3x    frame=18368 fps=440 q=-0.0 size=N/A time=00:12:46.09 bitrate=N/A speed=18.3x    frame=18654 fps=441 q=-0.0 size=N/A time=00:12:58.02 bitrate=N/A speed=18.4x    frame=18914 fps=442 q=-0.0 size=N/A time=00:13:08.87 bitrate=N/A speed=18.4x    frame=19202 fps=443 q=-0.0 size=N/A time=00:13:20.88 bitrate=N/A speed=18.5x    frame=19479 fps=444 q=-0.0 size=N/A time=00:13:32.43 bitrate=N/A speed=18.5x    frame=19754 fps=445 q=-0.0 size=N/A time=00:13:43.90 bitrate=N/A speed=18.6x    frame=20036 fps=447 q=-0.0 size=N/A time=00:13:55.66 bitrate=N/A speed=18.6x    frame=20292 fps=447 q=-0.0 size=N/A time=00:14:06.34 bitrate=N/A speed=18.6x    frame=20556 fps=448 q=-0.0 size=N/A time=00:14:17.35 bitrate=N/A speed=18.7x    frame=20775 fps=448 q=-0.0 size=N/A time=00:14:26.49 bitrate=N/A speed=18.7x    frame=21029 fps=448 q=-0.0 size=N/A time=00:14:37.08 bitrate=N/A speed=18.7x    frame=21285 fps=449 q=-0.0 size=N/A time=00:14:47.76 bitrate=N/A speed=18.7x    frame=21537 fps=449 q=-0.0 size=N/A time=00:14:58.27 bitrate=N/A speed=18.7x    frame=21801 fps=450 q=-0.0 size=N/A time=00:15:09.28 bitrate=N/A speed=18.8x    frame=22045 fps=450 q=-0.0 size=N/A time=00:15:19.46 bitrate=N/A speed=18.8x    frame=22316 fps=451 q=-0.0 size=N/A time=00:15:30.76 bitrate=N/A speed=18.8x    frame=22574 fps=451 q=-0.0 size=N/A time=00:15:41.52 bitrate=N/A speed=18.8x    frame=22806 fps=451 q=-0.0 size=N/A time=00:15:51.20 bitrate=N/A speed=18.8x    frame=23071 fps=452 q=-0.0 size=N/A time=00:16:02.25 bitrate=N/A speed=18.8x    frame=23332 fps=452 q=-0.0 size=N/A time=00:16:13.13 bitrate=N/A speed=18.9x    frame=23620 fps=454 q=-0.0 size=N/A time=00:16:25.15 bitrate=N/A speed=18.9x    frame=23869 fps=454 q=-0.0 size=N/A time=00:16:35.57 bitrate=N/A speed=18.9x    frame=24107 fps=454 q=-0.0 size=N/A time=00:16:45.46 bitrate=N/A speed=18.9x    frame=24388 fps=455 q=-0.0 size=N/A time=00:16:57.18 bitrate=N/A speed=  19x    frame=24665 fps=456 q=-0.0 size=N/A time=00:17:08.73 bitrate=N/A speed=  19x    frame=24947 fps=456 q=-0.0 size=N/A time=00:17:20.49 bitrate=N/A speed=  19x    frame=25174 fps=456 q=-0.0 size=N/A time=00:17:29.96 bitrate=N/A speed=  19x    frame=25382 fps=456 q=-0.0 size=N/A time=00:17:38.64 bitrate=N/A speed=  19x    frame=25607 fps=456 q=-0.0 size=N/A time=00:17:48.02 bitrate=N/A speed=  19x    frame=25857 fps=456 q=-0.0 size=N/A time=00:17:58.45 bitrate=N/A speed=  19x    frame=26145 fps=457 q=-0.0 size=N/A time=00:18:10.46 bitrate=N/A speed=  19x    frame=26390 fps=457 q=-0.0 size=N/A time=00:18:20.68 bitrate=N/A speed=19.1x    frame=26625 fps=457 q=-0.0 size=N/A time=00:18:30.48 bitrate=N/A speed=19.1x    frame=26895 fps=458 q=-0.0 size=N/A time=00:18:41.74 bitrate=N/A speed=19.1x    frame=27176 fps=458 q=-0.0 size=N/A time=00:18:53.46 bitrate=N/A speed=19.1x    frame=27417 fps=458 q=-0.0 size=N/A time=00:19:03.51 bitrate=N/A speed=19.1x    frame=27685 fps=459 q=-0.0 size=N/A time=00:19:14.69 bitrate=N/A speed=19.1x    frame=27957 fps=459 q=-0.0 size=N/A time=00:19:26.03 bitrate=N/A speed=19.2x    frame=28224 fps=460 q=-0.0 size=N/A time=00:19:37.17 bitrate=N/A speed=19.2x    frame=28495 fps=460 q=-0.0 size=N/A time=00:19:48.47 bitrate=N/A speed=19.2x    frame=28766 fps=461 q=-0.0 size=N/A time=00:19:59.78 bitrate=N/A speed=19.2x    frame=29036 fps=462 q=-0.0 size=N/A time=00:20:11.04 bitrate=N/A speed=19.3x    frame=29314 fps=462 q=-0.0 size=N/A time=00:20:22.63 bitrate=N/A speed=19.3x    frame=29576 fps=463 q=-0.0 size=N/A time=00:20:33.56 bitrate=N/A speed=19.3x    frame=29846 fps=463 q=-0.0 size=N/A time=00:20:44.82 bitrate=N/A speed=19.3x    frame=30101 fps=463 q=-0.0 size=N/A time=00:20:55.46 bitrate=N/A speed=19.3x    frame=30382 fps=464 q=-0.0 size=N/A time=00:21:07.18 bitrate=N/A speed=19.3x    frame=30656 fps=464 q=-0.0 size=N/A time=00:21:18.61 bitrate=N/A speed=19.4x    frame=30912 fps=465 q=-0.0 size=N/A time=00:21:29.28 bitrate=N/A speed=19.4x    frame=31172 fps=465 q=-0.0 size=N/A time=00:21:40.13 bitrate=N/A speed=19.4x    frame=31418 fps=465 q=-0.0 size=N/A time=00:21:50.39 bitrate=N/A speed=19.4x    frame=31670 fps=465 q=-0.0 size=N/A time=00:22:00.90 bitrate=N/A speed=19.4x    frame=31842 fps=464 q=-0.0 size=N/A time=00:22:08.07 bitrate=N/A speed=19.4x    frame=32027 fps=464 q=-0.0 size=N/A time=00:22:15.79 bitrate=N/A speed=19.3x    frame=32224 fps=463 q=-0.0 size=N/A time=00:22:24.00 bitrate=N/A speed=19.3x    frame=32441 fps=463 q=-0.0 size=N/A time=00:22:33.06 bitrate=N/A speed=19.3x    frame=32674 fps=463 q=-0.0 size=N/A time=00:22:42.77 bitrate=N/A speed=19.3x    frame=32871 fps=462 q=-0.0 size=N/A time=00:22:50.99 bitrate=N/A speed=19.3x    frame=33040 fps=461 q=-0.0 size=N/A time=00:22:58.04 bitrate=N/A speed=19.2x    frame=33252 fps=461 q=-0.0 size=N/A time=00:23:06.88 bitrate=N/A speed=19.2x    frame=33461 fps=460 q=-0.0 size=N/A time=00:23:15.60 bitrate=N/A speed=19.2x    frame=33688 fps=460 q=-0.0 size=N/A time=00:23:25.07 bitrate=N/A speed=19.2x    frame=33894 fps=460 q=-0.0 size=N/A time=00:23:33.66 bitrate=N/A speed=19.2x    frame=34126 fps=460 q=-0.0 size=N/A time=00:23:43.33 bitrate=N/A speed=19.2x    frame=34357 fps=459 q=-0.0 size=N/A time=00:23:52.97 bitrate=N/A speed=19.2x    [Parsed_ssim_10 @ 0000022ea8d6f8c0] SSIM Y:0.993901 (22.147716) U:0.994283 (22.428168) V:0.994340 (22.471772) All:0.994038 (22.246131)
[out#0/null @ 0000022e9cea3680] video:14859KiB audio:270452KiB subtitle:0KiB other streams:0KiB global headers:0KiB muxing overhead: unknown
frame=34581 fps=459 q=-0.0 Lsize=N/A time=00:24:02.31 bitrate=N/A speed=19.2x    
